<svg width="20" height="20" viewBox="0 0 20 20" fill="none" xmlns="http://www.w3.org/2000/svg"><rect width="20" height="20" rx="4" fill="#b2ccf7"/><rect x=".5" y=".5" width="19" height="19" rx="3.5"/><path d="M12 11.333l-.493.082a.5.5 0 01.493-.582v.5zm-7.333 0v.5a.5.5 0 01-.5-.5h.5zM6 4.167h7.573v1H6v-1zm8.373 7.666H12v-1h2.373v1zm-1.88-.582l.538 3.224-.987.164-.537-3.224.986-.164zm-.613 4.582h-.143v-1h.142l.001 1zM9.657 14.72L7.98 12.205l.832-.555 1.677 2.515-.832.555zm-2.37-2.887h-2.62v-1h2.62v1zm-3.12-.5V6h1v5.333h-1zM15.37 5.64l.8 4-.98.197-.8-4 .98-.197zm-7.39 6.565a.832.832 0 00-.693-.37v-1c.613 0 1.185.305 1.525.815l-.832.555zm5.05 2.27a1.17 1.17 0 01-.66 1.25 1.166 1.166 0 01-.49.108v-.999a.167.167 0 00.164-.195l.987-.164zm1.343-3.64a.832.832 0 00.818-.998l.98-.196a1.836 1.836 0 01-1.798 2.193v-1zm-.8-6.668a1.834 1.834 0 011.798 1.473l-.98.197a.832.832 0 00-.818-.67v-1zm-1.836 11.666a2.5 2.5 0 01-2.08-1.112l.832-.555a1.5 1.5 0 001.248.667v1zM6 5.167A.834.834 0 005.167 6h-1A1.833 1.833 0 016 4.167v1z" fill="#488BFF"/><path d="M7.333 11.333V4.667" stroke="#488BFF"/></svg>