<svg width="24" height="24" viewBox="0 0 24 24" fill="none" xmlns="http://www.w3.org/2000/svg"><g opacity=".5"><mask id="a" style="mask-type:alpha" maskUnits="userSpaceOnUse" x="3" y="3" width="18" height="18"><path d="M20.267 6.333l-5.14 12.85a2 2 0 01-3.272.672l-2.794-2.794a1 1 0 010-1.415l5.06-5.06a.5.5 0 00-.707-.707l-5.06 5.06a1 1 0 01-1.415 0l-2.794-2.794a2 2 0 01.671-3.271l12.851-5.14c1.633-.654 3.253.966 2.6 2.599z" fill="#177DDC"/></mask><g mask="url(#a)"><g filter="url(#filter0_f_2440_9357)"><ellipse cx="10.578" cy="10.049" rx="7.578" ry="7.561" fill="#031579"/></g><g opacity=".6" filter="url(#filter1_f_2440_9357)"><ellipse cx="17.422" cy="9.561" rx="7.578" ry="7.561" fill="#1B44BA"/></g><g filter="url(#filter2_f_2440_9357)"><ellipse cx="9.844" cy="16.146" rx="6.844" ry="6.829" fill="url(#paint0_linear_2440_9357)" fill-opacity=".5"/></g></g></g><defs><filter id="filter0_f_2440_9357" x="-1" y="-1.512" width="23.155" height="23.122" filterUnits="userSpaceOnUse" color-interpolation-filters="sRGB"><feFlood flood-opacity="0" result="BackgroundImageFix"/><feBlend in="SourceGraphic" in2="BackgroundImageFix" result="shape"/><feGaussianBlur stdDeviation="2" result="effect1_foregroundBlur_2440_9357"/></filter><filter id="filter1_f_2440_9357" x="5.844" y="-2" width="23.155" height="23.122" filterUnits="userSpaceOnUse" color-interpolation-filters="sRGB"><feFlood flood-opacity="0" result="BackgroundImageFix"/><feBlend in="SourceGraphic" in2="BackgroundImageFix" result="shape"/><feGaussianBlur stdDeviation="2" result="effect1_foregroundBlur_2440_9357"/></filter><filter id="filter2_f_2440_9357" x="-1" y="5.317" width="21.689" height="21.659" filterUnits="userSpaceOnUse" color-interpolation-filters="sRGB"><feFlood flood-opacity="0" result="BackgroundImageFix"/><feBlend in="SourceGraphic" in2="BackgroundImageFix" result="shape"/><feGaussianBlur stdDeviation="2" result="effect1_foregroundBlur_2440_9357"/></filter><linearGradient id="paint0_linear_2440_9357" x1="7.637" y1="11.52" x2="12.261" y2="17.258" gradientUnits="userSpaceOnUse"><stop stop-color="#4A9EE0"/><stop offset="1" stop-color="#3F88E3"/></linearGradient></defs></svg>