<svg width="20" height="20" viewBox="0 0 20 20" fill="none" xmlns="http://www.w3.org/2000/svg"><rect width="20" height="20" rx="4" fill="#64B1FF"/><rect width="20" height="20" rx="4" fill="#fff" fill-opacity=".8"/><path d="M15.148 4.804l.081.081a2.764 2.764 0 01-.033 3.864l-1.581 1.58a4.223 4.223 0 00-.26-1.191l1.115-1.114a1.732 1.732 0 000-2.446l-.048-.048a1.73 1.73 0 00-2.446 0L9.355 8.15a1.73 1.73 0 000 2.447l.049.048c.057.057.117.109.18.157l-.73.73a2.418 2.418 0 01-.176-.161l-.048-.049a2.764 2.764 0 010-3.896l2.621-2.622a2.764 2.764 0 013.897 0z" fill="#64B1FF"/><path d="M11.322 8.63l.048.048a2.764 2.764 0 010 3.897l-2.62 2.622a2.765 2.765 0 01-3.898 0l-.048-.049a2.764 2.764 0 010-3.897l1.581-1.58c.028.407.116.808.26 1.191L5.53 11.976a1.731 1.731 0 000 2.446l.048.048a1.73 1.73 0 002.446 0l2.621-2.62a1.731 1.731 0 000-2.446l-.049-.048a1.73 1.73 0 00-.18-.156l.73-.731c.06.051.12.105.176.161z" fill="#64B1FF"/></svg>