<svg width="20" height="20" viewBox="0 0 20 20" fill="none" xmlns="http://www.w3.org/2000/svg"><rect width="20" height="20" rx="4" fill="#fff"/><rect x=".5" y=".5" width="19" height="19" rx="3.5"/><path d="M12 8.667l-.493-.082a.5.5 0 00.493.582v-.5zm-7.333 0v-.5a.5.5 0 00-.5.5h.5zM6 15.833h7.573v-1H6v1zm8.373-7.666H12v1h2.373v-1zm-1.88.582l.538-3.224-.987-.164-.537 3.224.986.164zm-.613-4.582h-.143v1h.142l.001-1zM9.657 5.28L7.98 7.795l.832.555 1.677-2.515-.832-.555zm-2.37 2.887h-2.62v1h2.62v-1zm-3.12.5V14h1V8.667h-1zM15.37 14.36l.8-4-.98-.197-.8 4 .98.197zM7.98 7.795a.831.831 0 01-.693.37v1c.613 0 1.185-.305 1.525-.815l-.832-.555zm5.05-2.27a1.17 1.17 0 00-.66-1.25 1.166 1.166 0 00-.49-.108v.999a.167.167 0 01.164.195l.987.164zm1.343 3.64a.833.833 0 01.818.998l.98.196a1.837 1.837 0 00-1.013-2.017 1.833 1.833 0 00-.785-.176v1zm-.8 6.668a1.834 1.834 0 001.798-1.473l-.98-.197a.832.832 0 01-.818.67v1zM11.737 4.167a2.5 2.5 0 00-2.08 1.112l.832.555a1.5 1.5 0 011.248-.667v-1zM6 14.833A.834.834 0 015.167 14h-1A1.833 1.833 0 006 15.833v-1z" fill="#595959"/><path d="M7.333 8.667v6.666" stroke="#595959"/></svg>