<svg width="20" height="20" viewBox="0 0 20 20" fill="none" xmlns="http://www.w3.org/2000/svg"><g clip-path="url(#clip0_2440_9417)"><mask id="a" style="mask-type:alpha" maskUnits="userSpaceOnUse" x="0" y="0" width="22" height="26"><path fill="url(#paint0_linear_2440_9417)" fill-opacity=".5" d="M0 0h22v26H0z"/></mask><g filter="url(#filter0_f_2440_9417)" mask="url(#a)"><path d="M0 8a8 8 0 018-8h11a2 2 0 012 2v22a2 2 0 01-2 2H2a2 2 0 01-2-2V8z" fill="url(#paint1_linear_2440_9417)"/></g><g opacity=".6" filter="url(#filter1_f_2440_9417)"><circle cx="23" cy="17" r="6" fill="#1B44BA"/></g></g><path opacity=".6" fill-rule="evenodd" clip-rule="evenodd" d="M16.154 9.23v9.104a4.617 4.617 0 000-9.103z" fill="#1B44BA"/><path d="M6.73 15.817H5.54v-.423c0-.322.058-.595.175-.82.117-.229.314-.457.59-.686.32-.261.53-.474.636-.64.105-.168.158-.348.158-.54 0-.223-.078-.4-.235-.533-.156-.132-.38-.198-.671-.198-.565 0-1.09.21-1.578.631V11.22c.538-.3 1.114-.45 1.727-.45.688 0 1.223.157 1.604.473.382.315.573.742.573 1.28 0 .345-.079.664-.235.955-.156.292-.425.592-.807.902-.321.255-.527.456-.617.603a.993.993 0 00-.13.523v.311zm-.591.658c.228 0 .423.074.586.221a.698.698 0 01.243.537c0 .204-.081.38-.243.527a.842.842 0 01-.586.22.831.831 0 01-.586-.22.703.703 0 010-1.06.822.822 0 01.586-.225z" fill="#fff"/><rect x="3.077" y="4.615" width="4.615" height="1.538" rx=".769" fill="#FDFDFD"/><rect x="3.077" y="7.692" width="7.692" height="1.538" rx=".769" fill="#FDFDFD"/><defs><linearGradient id="paint0_linear_2440_9417" x1="7.452" y1="4.194" x2="16.45" y2="13.62" gradientUnits="userSpaceOnUse"><stop stop-color="#4A9EE0"/><stop offset="1" stop-color="#3F88E3"/></linearGradient><linearGradient id="paint1_linear_2440_9417" x1="7.113" y1="4.194" x2="16.121" y2="13.202" gradientUnits="userSpaceOnUse"><stop stop-color="#4A9EE0"/><stop offset="1" stop-color="#3F88E3"/></linearGradient><filter id="filter0_f_2440_9417" x="-4" y="-4" width="29" height="34" filterUnits="userSpaceOnUse" color-interpolation-filters="sRGB"><feFlood flood-opacity="0" result="BackgroundImageFix"/><feBlend in="SourceGraphic" in2="BackgroundImageFix" result="shape"/><feGaussianBlur stdDeviation="2" result="effect1_foregroundBlur_2440_9417"/></filter><filter id="filter1_f_2440_9417" x="11" y="5" width="24" height="24" filterUnits="userSpaceOnUse" color-interpolation-filters="sRGB"><feFlood flood-opacity="0" result="BackgroundImageFix"/><feBlend in="SourceGraphic" in2="BackgroundImageFix" result="shape"/><feGaussianBlur stdDeviation="3" result="effect1_foregroundBlur_2440_9417"/></filter><clipPath id="clip0_2440_9417"><path d="M0 6a6 6 0 016-6h8.154a2 2 0 012 2v16a2 2 0 01-2 2H2a2 2 0 01-2-2V6z" fill="#fff"/></clipPath></defs></svg>