<svg width="64" height="64" viewBox="0 0 64 64" fill="none" xmlns="http://www.w3.org/2000/svg"><g filter="url(#filter0_d_2444_532)"><mask id="a" style="mask-type:alpha" maskUnits="userSpaceOnUse" x="12" y="8" width="40" height="40"><circle cx="32" cy="28" r="20" fill="#fff"/></mask><g mask="url(#a)"><path fill="#fff" d="M5 2h63v57H5z"/><g filter="url(#filter1_f_2444_532)"><ellipse cx="26.7" cy="24.939" rx="21.7" ry="21.549" fill="#031579" fill-opacity=".7"/></g><g opacity=".6" filter="url(#filter2_f_2444_532)"><ellipse cx="46.3" cy="23.549" rx="21.7" ry="21.549" fill="#1B44BA" fill-opacity=".8"/></g><g filter="url(#filter3_f_2444_532)"><ellipse cx="24.6" cy="42.317" rx="19.6" ry="19.463" fill="url(#paint0_linear_2444_532)" fill-opacity=".8"/></g></g></g><path d="M26.662 18l.863 2.799 2.8.863-2.8.863-.863 2.8-.863-2.8L23 21.662l2.799-.863.863-2.799zm13.045.293L39 16l-.707 2.293L36 19l2.293.707L39 22l.707-2.293L42 19l-2.293-.707zm2.491 9.042l-.556-1.802-.555 1.802-1.803.556 1.803.556.555 1.802.556-1.802L44 27.891l-1.802-.556zM28.936 38.538c-.233.402-.35.604-.489.743a1.5 1.5 0 01-1.449.388c-.19-.05-.392-.167-.794-.4-.403-.232-.604-.348-.744-.488a1.5 1.5 0 01-.388-1.449c.05-.19.167-.392.4-.794l6.148-10.65 3.464 2-6.148 10.65zm7.294-16.515c.054.033.126.088.208.157.923.777.827 1.9.235 2.952l-1.017 1.807-3.492-2.016 1.01-1.793c.591-1.05 1.507-1.667 2.648-1.28.182.063.33.123.409.173z" fill="#fff"/><defs><filter id="filter0_d_2444_532" x="0" y="0" width="64" height="64" filterUnits="userSpaceOnUse" color-interpolation-filters="sRGB"><feFlood flood-opacity="0" result="BackgroundImageFix"/><feColorMatrix in="SourceAlpha" values="0 0 0 0 0 0 0 0 0 0 0 0 0 0 0 0 0 0 127 0" result="hardAlpha"/><feOffset dy="4"/><feGaussianBlur stdDeviation="6"/><feComposite in2="hardAlpha" operator="out"/><feColorMatrix values="0 0 0 0 0 0 0 0 0 0 0 0 0 0 0 0 0 0 0.25 0"/><feBlend in2="BackgroundImageFix" result="effect1_dropShadow_2444_532"/><feBlend in="SourceGraphic" in2="effect1_dropShadow_2444_532" result="shape"/></filter><filter id="filter1_f_2444_532" x="-3" y="-4.61" width="59.4" height="59.098" filterUnits="userSpaceOnUse" color-interpolation-filters="sRGB"><feFlood flood-opacity="0" result="BackgroundImageFix"/><feBlend in="SourceGraphic" in2="BackgroundImageFix" result="shape"/><feGaussianBlur stdDeviation="4" result="effect1_foregroundBlur_2444_532"/></filter><filter id="filter2_f_2444_532" x="16.6" y="-6" width="59.4" height="59.098" filterUnits="userSpaceOnUse" color-interpolation-filters="sRGB"><feFlood flood-opacity="0" result="BackgroundImageFix"/><feBlend in="SourceGraphic" in2="BackgroundImageFix" result="shape"/><feGaussianBlur stdDeviation="4" result="effect1_foregroundBlur_2444_532"/></filter><filter id="filter3_f_2444_532" x="-3" y="14.854" width="55.2" height="54.927" filterUnits="userSpaceOnUse" color-interpolation-filters="sRGB"><feFlood flood-opacity="0" result="BackgroundImageFix"/><feBlend in="SourceGraphic" in2="BackgroundImageFix" result="shape"/><feGaussianBlur stdDeviation="4" result="effect1_foregroundBlur_2444_532"/></filter><linearGradient id="paint0_linear_2444_532" x1="18.277" y1="29.132" x2="31.443" y2="45.546" gradientUnits="userSpaceOnUse"><stop stop-color="#4A9EE0"/><stop offset="1" stop-color="#3F88E3"/></linearGradient></defs></svg>