<svg width="28" height="28" viewBox="0 0 28 28" fill="none" xmlns="http://www.w3.org/2000/svg"><g clip-path="url(#clip0_2444_59)"><rect width="28" height="28" rx="4" fill="#EEE"/><g filter="url(#filter0_f_2444_59)"><ellipse cx="30.644" cy="28.463" rx="40.644" ry="40.829" fill="#031579"/></g><g opacity=".6" filter="url(#filter1_f_2444_59)"><ellipse cx="67.356" cy="25.829" rx="40.644" ry="40.829" fill="#1B44BA"/></g><g filter="url(#filter2_f_2444_59)"><ellipse cx="26.711" cy="61.39" rx="36.711" ry="36.878" fill="url(#paint0_linear_2444_59)" fill-opacity=".5"/></g></g><path d="M21.113 10.675c0-.022-.01-.032-.032-.032l-6.895 2.352c-.032.01-.042.053-.021.074l1.447 1.706c.01.01.021.021.043.021h4.766l.692-4.121zm.521-.191l-.723 4.302h.957c.022 0 .043-.021.053-.043l.788-4.577c.01-.032-.032-.063-.064-.053l-.968.329c-.022.01-.043.031-.043.042zm-14.747.191c0-.022.011-.032.032-.032l6.895 2.352c.032.01.042.053.021.074l-1.447 1.706c-.01.01-.021.021-.042.021H7.579l-.692-4.121zm-.521-.191l.723 4.302h-.957c-.021 0-.043-.021-.053-.043l-.777-4.577c-.01-.032.032-.063.064-.053l.968.329c.021.01.032.031.032.042zm2.351 7.11c0 .265.213.476.48.476h1.967c.022 0 .054-.02.054-.053v-.339c0-.02-.022-.053-.054-.053H9.43a.179.179 0 01-.18-.18v-.964h1.914c.022 0 .054-.021.054-.053v-.339c0-.021-.022-.053-.054-.053H8.77c-.02 0-.053.021-.053.053v1.505zm-2.894 0c0 .265.213.487.49.487h2.01c.022 0 .043-.021.043-.042v-.34c0-.02-.021-.042-.042-.042h-1.81a.168.168 0 01-.17-.17v-.974h1.969c.021 0 .043-.021.043-.043v-.338c0-.022-.022-.043-.043-.043H5.866c-.021 0-.043.021-.043.043v1.462z" fill="#fff"/><path d="M6.76 17.287h1.553c.021 0 .043-.022.043-.043v-.35c0-.02-.022-.042-.043-.042H6.76c-.022 0-.043.021-.043.042v.34c0 .031.021.052.043.052zm6.98-.446H12.1V16.1c0-.032-.02-.053-.053-.053h-.425c-.032 0-.053.02-.053.053v1.917c0 .032.021.053.053.053h.425c.032 0 .054-.02.054-.053v-.741h1.638v.741c0 .032.021.053.053.053h.426c.032 0 .053-.02.053-.053V16.1c0-.032-.021-.053-.053-.053h-.426c-.031 0-.053.02-.053.053v.741zm8.447.922L21.145 16.1a.097.097 0 00-.085-.043h-.745c-.032 0-.053.021-.053.053v1.929c0 .031.02.053.053.053h.436a.05.05 0 00.053-.053v-1.61c0-.011.01-.011.01 0l1 1.61a.097.097 0 00.086.042h.777c.032 0 .053-.021.053-.053V16.1c0-.032-.021-.053-.053-.053h-.436c-.032 0-.054.02-.054.053v1.663c.022.01.01.01 0 0zm2.713-1.706h-1.734a.05.05 0 00-.053.053v1.918c0 .032.021.053.053.053H24.9a.761.761 0 00.767-.763v-.487a.757.757 0 00-.767-.774zm.245 1.145a.449.449 0 01-.447.445h-1.064v-1.155h1.064c.245 0 .447.201.447.445v.265zm-5.725.868h.426c.032 0 .054-.02.054-.053V16.1a.05.05 0 00-.053-.053h-.426c-.032 0-.053.02-.053.053v1.928c0 .021.021.042.053.042zM5.195 16.057h-.478c-.032 0-.064.021-.085.043l-.724 1.165a.032.032 0 01-.042 0L3.142 16.1a.097.097 0 00-.085-.043h-.67c-.022 0-.054.021-.054.053v1.929c0 .02.022.053.054.053h.436c.021 0 .053-.022.053-.053v-1.537c0-.01.01-.01.01 0l.724 1.187c.01.021.032.032.064.032h.447c.021 0 .053-.01.064-.032l.734-1.187c0-.01.01 0 .01 0v1.526c0 .021.022.053.054.053h.436c.021 0 .053-.021.053-.053V16.1c0-.022-.021-.053-.053-.053h-.224v.01zm13.524 0h-.48c-.031 0-.063.021-.084.043l-.724 1.165c-.01.01-.032.01-.042 0l-.724-1.165a.097.097 0 00-.085-.043h-.702c-.021 0-.053.021-.053.053v1.929c0 .02.02.053.053.053h.436c.021 0 .053-.022.053-.053v-1.537c0-.01.01-.01.01 0l.735 1.187c.01.021.032.032.064.032h.447c.021 0 .053-.01.064-.032l.734-1.187c0-.01.01 0 .01 0v1.526c0 .021.022.053.053.053h.437c.021 0 .053-.021.053-.053V16.1c0-.022-.021-.053-.053-.053h-.202v.01z" fill="#fff"/><defs><filter id="filter0_f_2444_59" x="-24" y="-26.366" width="109.289" height="109.658" filterUnits="userSpaceOnUse" color-interpolation-filters="sRGB"><feFlood flood-opacity="0" result="BackgroundImageFix"/><feBlend in="SourceGraphic" in2="BackgroundImageFix" result="shape"/><feGaussianBlur stdDeviation="7" result="effect1_foregroundBlur_2444_59"/></filter><filter id="filter1_f_2444_59" x="12.711" y="-29" width="109.289" height="109.658" filterUnits="userSpaceOnUse" color-interpolation-filters="sRGB"><feFlood flood-opacity="0" result="BackgroundImageFix"/><feBlend in="SourceGraphic" in2="BackgroundImageFix" result="shape"/><feGaussianBlur stdDeviation="7" result="effect1_foregroundBlur_2444_59"/></filter><filter id="filter2_f_2444_59" x="-24" y="10.512" width="101.422" height="101.756" filterUnits="userSpaceOnUse" color-interpolation-filters="sRGB"><feFlood flood-opacity="0" result="BackgroundImageFix"/><feBlend in="SourceGraphic" in2="BackgroundImageFix" result="shape"/><feGaussianBlur stdDeviation="7" result="effect1_foregroundBlur_2444_59"/></filter><linearGradient id="paint0_linear_2444_59" x1="14.869" y1="36.408" x2="39.874" y2="67.227" gradientUnits="userSpaceOnUse"><stop stop-color="#4A9EE0"/><stop offset="1" stop-color="#3F88E3"/></linearGradient><clipPath id="clip0_2444_59"><rect width="28" height="28" rx="4" fill="#fff"/></clipPath></defs></svg>