<svg width="16" height="16" viewBox="0 0 16 16" fill="none" xmlns="http://www.w3.org/2000/svg"><path d="M12.083 4.5a4.083 4.083 0 11-8.166 0 4.083 4.083 0 018.166 0zm-1.166 0a2.917 2.917 0 10-5.834 0 2.917 2.917 0 005.834 0zm4.04 6.828c.39.186.626.586.626 1.018V15a.583.583 0 01-.583.583H1A.583.583 0 01.417 15v-2.655c0-.431.236-.83.626-1.017A16.083 16.083 0 018 9.75c2.489 0 4.842.568 6.957 1.578zM8 10.917c-2.294 0-4.463.52-6.417 1.446v2.054h12.834v-2.054A14.916 14.916 0 008 10.917z" fill="#488BFF"/></svg>