<svg width="1440" height="1960" viewBox="0 0 1440 1960" fill="none" xmlns="http://www.w3.org/2000/svg"><path fill="#fff" d="M0 0h1440v1960H0z"/><path d="M125.828 427.372a60.85 60.85 0 01.952 8.938l12.139 23.893-2.603 1.323-9.73-19.15a68.117 68.117 0 01-1.026 7.251l-2.957-.696c.672-3.153 1.02-6.53 1.044-10.132a53.167 53.167 0 00-.909-10.62l3.09-.807zm36.537 17.868l-.461 3.42c-5.621-.584-10.489-1.745-14.602-3.484-1.108 3.883-3.029 8.374-5.763 13.472l-3.282-1.249c3.092-5.041 5.198-9.55 6.317-13.529-2.656-1.402-5.184-3.169-7.583-5.3-2.375-2.143-4.717-4.752-7.027-7.826l-1.355.689-1.377-2.711 18.294-9.294 1.359 2.674c1.037 3.691 1.662 7.127 1.873 10.31a37.204 37.204 0 01-.619 9.467c3.695 1.563 8.437 2.683 14.226 3.361zm-29.691-15.873c2.116 2.634 4.188 4.857 6.215 6.669a35.716 35.716 0 006.487 4.555c.519-2.746.668-5.484.448-8.214-.232-2.753-.812-5.689-1.738-8.808l-11.412 5.798zm27.541-20.094c.532 3.109.832 6.113.898 9.01l12.303 24.214-2.604 1.323-9.91-19.507c-.155 1.873-.456 4.165-.904 6.875l-2.85-.93c.625-2.83.962-6.052 1.011-9.666a54.113 54.113 0 00-.873-10.549l2.929-.77zm20.738.725l4.547 8.951 5.635-2.863 1.322 2.604-23.322 11.849-1.323-2.603 5.563-2.827-4.547-8.951-3.994 2.03-1.269-2.497 3.994-2.029-3.388-6.669 2.729-1.251 3.334 6.561 6.847-3.478-3.388-6.669 2.657-1.216 3.334 6.562 4.422-2.247 1.269 2.496-4.422 2.247zm-2.604 1.323l-6.847 3.479 4.548 8.951 6.847-3.479-4.548-8.951zm-4.468 28.472c.872-1.64 1.671-3.571 2.396-5.794.713-2.246 1.225-4.271 1.535-6.074l2.831.715c-.382 1.78-.935 3.811-1.66 6.093a93.887 93.887 0 01-2.179 6.043l-2.923-.983zm11.171-15.456c1.397.336 3.268.927 5.611 1.77 2.366.832 4.267 1.571 5.702 2.218l-.607 2.955c-1.292-.719-3.068-1.477-5.327-2.273-2.271-.82-4.327-1.481-6.167-1.982l.788-2.688zm39.597-11.818c.689-.41 1.164-.771 1.424-1.083.273-.288.384-.598.334-.932-.038-.37-.22-.875-.546-1.517l-13.154-25.89 2.443-1.107 13.517 26.603c.495.975.745 1.79.749 2.446.004.656-.243 1.26-.74 1.812-.485.575-1.298 1.213-2.438 1.912l-1.64 1.012-1.981-2.045 2.032-1.211zm-36.477-16.867c1.039.16 2.323.42 3.851.78 1.541.324 2.759.632 3.656.925l-.212 3.203c-.981-.399-2.271-.82-3.872-1.263-1.613-.467-2.933-.798-3.96-.994l.537-2.651zm17.261 19.137l-10.527-20.719 11.198-5.689 10.472 20.612-2.389 1.214-9.24-18.187-6.455 3.279 9.295 18.294-2.354 1.196zm14.094-5.904l-10.273-20.22 2.408-1.089 10.219 20.113-2.354 1.196zm-13.556 14.38c1.413-2.692 2.33-4.863 2.748-6.511.419-1.649.456-3.283.112-4.903-.357-1.643-1.193-3.761-2.51-6.352l-4.71-9.272 2.372-1.071 4.656 9.165c1.486 2.925 2.425 5.274 2.818 7.048a11.42 11.42 0 01-.019 5.349c-.418 1.768-1.35 4.29-2.795 7.567l-2.672-1.02zm-15.114-19.062c1.003.149 2.37.426 4.102.833 1.732.406 3.088.779 4.068 1.118l-.445 3.098c-.957-.471-2.284-.934-3.981-1.388-1.684-.49-3.124-.85-4.318-1.081l.574-2.58zm10.039 22.762c-.035-1.777-.343-4.178-.923-7.203-.556-3.038-1.12-5.443-1.692-7.217l1.43-.188 1.197-.204c.548 1.726 1.118 4.083 1.709 7.073.592 2.989.965 5.402 1.12 7.238l-2.841.501zm11.635-15.513c3.369.801 6.225 1.773 8.57 2.914l-.679 2.903c-2.466-1.499-5.223-2.656-8.269-3.471l.378-2.346zm52.305-24.78c.574 2.191.902 4.014.983 5.468.131 1.788-.482 3.026-1.837 3.715-1.45.737-3.194.307-5.232-1.29-1.618-1.302-3.444-3.335-5.477-6.101-2.01-2.778-4.378-6.614-7.104-11.51l-11.483 5.834-1.323-2.604 11.412-5.797-3.712-6.864 2.605-1.144 3.639 6.721 7.916-4.022 1.323 2.603-7.81 3.968c2.666 4.717 4.872 8.323 6.617 10.816 1.745 2.493 3.313 4.284 4.704 5.372.671.497 1.186.833 1.545 1.01.37.141.674.151.912.03.69-.35.881-1.24.573-2.669a26.386 26.386 0 00-1.097-3.66l2.846.124zm-12.629-16.555c-.754-.425-1.777-.847-3.067-1.268-1.291-.421-2.366-.713-3.226-.874l.646-2.437c.717.115 1.732.376 3.046.785 1.327.373 2.384.718 3.173 1.035l-.572 2.759zm-20.628 13.531c-.959-.649-2.299-1.374-4.022-2.174-1.71-.836-3.121-1.435-4.233-1.797l1.146-2.602c.992.304 2.337.832 4.035 1.584 1.722.741 3.074 1.4 4.056 1.978l-.982 3.011zm9.468 11.925l2.406 1.38-.419 1.559c-.945 3.381-1.505 5.311-1.68 5.789-.235.657-.456 1.517-.664 2.58l-2.636-1.038c.163-.562.226-1.087.187-1.576-.051-.512-.216-1.042-.494-1.589l-6.359-12.517-4.458 2.265-1.359-2.675 6.99-3.551 7.247 14.265 1.239-4.892zm13.758-2.503l.832 1.372c-1.257 1.117-3.013 2.547-5.267 4.291-2.267 1.72-4.131 3.086-5.591 4.097l-1.59-2.423a84.514 84.514 0 004.274-3.068l-4.784-9.415-4.136 2.102-1.269-2.497 10.663-5.417 1.268 2.496-3.994 2.03 4.53 8.915c1.993-1.611 3.452-2.831 4.377-3.66l.687 1.177zm36.235-38.645l1.141 2.247 10.378-5.273 1.069 2.104-22.824 11.596-1.069-2.104 9.95-5.055-1.142-2.247-7.667 3.896-1.033-2.033 7.668-3.895-1.087-2.14-8.737 4.439-1.069-2.104 8.737-4.439-1.613-3.174 2.533-1.197 1.576 3.103 8.951-4.548 1.069 2.104-8.951 4.548 1.087 2.139 8.131-4.131 1.032 2.033-8.13 4.131zm-15.179 6.949c-.887-.745-2.121-1.584-3.701-2.516-1.581-.932-2.885-1.615-3.913-2.05l1.361-2.442c.957.412 2.231 1.065 3.823 1.961 1.616.884 2.861 1.628 3.736 2.23l-1.306 2.817zm9 16.919l1.582-4.214 2.195 1.936c-.352.837-.757 1.835-1.215 2.995a92.719 92.719 0 00-1.197 3.031c-.211.466-.463 1.207-.755 2.223l-2.547-1.129c.164-.502.238-.943.224-1.325a2.659 2.659 0 00-.294-1.197l-6.649-13.087-4.494 2.283-1.268-2.497 7.025-3.569 7.393 14.55zm7.837 3.152l-7.917-15.584 16.689-8.48 6.178 12.161c.423.832.624 1.522.604 2.071-.008.572-.261 1.105-.759 1.597-.462.504-1.263 1.105-2.403 1.804l-1.016.651-1.781-1.652 1.3-.796c.677-.434 1.14-.788 1.389-1.064.261-.252.372-.504.335-.754-.014-.262-.141-.631-.383-1.106l-.507-.999-11.768 5.979 2.5 4.921-2.461 1.251zm8.486-18.534l-1.106-2.176-11.768 5.979 1.105 2.176 11.769-5.979zm-10.7 8.083l1.106 2.175 11.768-5.979-1.105-2.175-11.769 5.979zm41.202-43.277l9.315 21.514c.606 1.427.882 2.588.828 3.483-.018.907-.401 1.744-1.147 2.512-.71.78-1.897 1.652-3.561 2.617l-2.352 1.374-2.393-2.149 3.065-1.826c1.081-.639 1.835-1.187 2.261-1.643.414-.479.596-1.005.544-1.577-.039-.608-.289-1.424-.749-2.446a641.978 641.978 0 00-3.706-8.796 1530.06 1530.06 0 00-3.777-8.759l-4.101 2.084c1.364 4.332 2.217 8.161 2.56 11.486.356 3.289.198 6.54-.473 9.752-.648 3.201-1.877 6.786-3.688 10.757l-3.601-.817c1.932-3.793 3.275-7.183 4.031-10.169a27.3 27.3 0 00.765-9.093c-.27-3.063-1.038-6.576-2.304-10.539l-4.387 2.228c1.081 4.895 1.385 9.377.91 13.447-.487 4.046-1.801 8.288-3.943 12.726l-3.119-1.017c2.156-3.997 3.485-7.858 3.986-11.582.512-3.76.319-7.819-.579-12.179l-4.529 2.301c-.296 4.188-.916 7.913-1.861 11.175l-2.939-.84c.828-2.903 1.399-6.019 1.711-9.349.313-3.329.287-6.382-.077-9.158l3.036-.825c.202 1.692.291 3.516.268 5.472l20.006-10.164zm13.691-12.295a92.788 92.788 0 011.04 5.932l8.202-4.167 1.34 2.639c1.133 3.642 1.781 7.097 1.946 10.363a37.82 37.82 0 01-.742 9.844c-.695 3.284-1.834 6.929-3.418 10.934l-3.227-1.053c1.598-3.802 2.756-7.232 3.476-10.29.708-3.082 1.016-6.095.926-9.04-.103-2.969-.624-6.114-1.564-9.435l-6.597 3.352c.179 1.883.264 3.934.254 6.152 1.05.065 2.232.212 3.545.442 1.301.206 2.37.426 3.206.659l-.138 3.525c-.789-.317-1.811-.62-3.065-.91a33.566 33.566 0 00-3.6-.639 45.913 45.913 0 01-.488 4.69l-3.065-.91c.456-3.223.589-6.701.398-10.432-.191-3.732-.685-7.294-1.482-10.688l3.053-.968zm25.734 26.632l-16.234-31.953 2.64-1.251 16.198 31.881-2.604 1.323zm-6.624-23.016c4.822.482 8.457 1.043 10.906 1.683l-.192 3.507c-2.295-.748-4.26-1.29-5.896-1.626a39.02 39.02 0 00-5.175-.735l.357-2.829zm44.382-18.915l-14.265 7.247c.298 1.704.516 3.193.655 4.468l12.303-6.25 1.251 2.46c-.162 2.744-.618 5.908-1.371 9.49 2.35-.027 4.425.025 6.227.157l.38 3.486c-2.447-.402-5.603-.578-9.467-.53-3.84.037-7.076.231-9.71.582l-.197-2.861c2.729-.399 5.995-.653 9.798-.761.649-3.021 1.019-5.648 1.112-7.878l-11.91 6.051-1.196-2.264a57.95 57.95 0 00-.656-4.736l-5.813 2.953-1.232-2.425 6.526-3.316c-.418-1.881-.78-3.447-1.086-4.697l-5.67 2.88-1.232-2.425 6.169-3.134a79.247 79.247 0 00-1.771-5.606l2.785-.966a101.276 101.276 0 011.661 5.213l10.377-5.272 1.233 2.425-10.877 5.526c.501 1.928.875 3.488 1.121 4.679l13.623-6.921 1.232 2.425zm-28.121-2.627c.425 2.954.653 5.934.684 8.94l12.393 24.392-2.568 1.304-10.055-19.792c-.2 2.315-.578 4.81-1.133 7.485l-2.868-.965c.662-2.7 1.041-5.868 1.137-9.507a68.112 68.112 0 00-.572-11.015l2.982-.842zM857.767 1437.35c.544 3.01.862 5.99.952 8.93l12.139 23.9-2.603 1.32-9.729-19.15a68.28 68.28 0 01-1.027 7.25l-2.956-.69c.671-3.16 1.019-6.53 1.044-10.14.048-3.61-.255-7.15-.909-10.62l3.089-.8zm36.537 17.87l-.461 3.41c-5.621-.58-10.488-1.74-14.602-3.48-1.108 3.88-3.029 8.37-5.763 13.47l-3.282-1.25c3.093-5.04 5.198-9.55 6.318-13.53-2.657-1.4-5.185-3.16-7.584-5.3-2.375-2.14-4.717-4.75-7.027-7.82l-1.355.69-1.377-2.71 18.294-9.3 1.359 2.68c1.038 3.69 1.662 7.12 1.873 10.31.2 3.16-.007 6.31-.618 9.46 3.695 1.57 8.437 2.69 14.225 3.37zm-29.69-15.88c2.115 2.64 4.187 4.86 6.214 6.67a35.846 35.846 0 006.487 4.56c.519-2.75.669-5.49.448-8.22-.232-2.75-.811-5.69-1.738-8.81l-11.411 5.8zm27.54-20.09c.533 3.11.832 6.11.899 9.01l12.302 24.21-2.603 1.32-9.911-19.5c-.155 1.87-.456 4.16-.904 6.87l-2.85-.93c.626-2.83.963-6.05 1.011-9.66a54.09 54.09 0 00-.873-10.55l2.929-.77zm20.738.72l4.548 8.95 5.634-2.86 1.323 2.6-23.323 11.85-1.322-2.6 5.563-2.83-4.548-8.95-3.994 2.03-1.268-2.49 3.994-2.03-3.388-6.67 2.729-1.25 3.333 6.56 6.847-3.48-3.388-6.67 2.658-1.22 3.334 6.57 4.422-2.25 1.268 2.5-4.422 2.24zm-2.603 1.33l-6.847 3.47 4.547 8.96 6.847-3.48-4.547-8.95zm-4.468 28.47c.872-1.64 1.67-3.57 2.395-5.8.713-2.24 1.225-4.27 1.535-6.07l2.831.72c-.382 1.77-.935 3.81-1.66 6.09a93.539 93.539 0 01-2.179 6.04l-2.922-.98zm11.17-15.46c1.398.34 3.268.93 5.611 1.77 2.367.83 4.268 1.57 5.703 2.22l-.607 2.95c-1.293-.71-3.069-1.47-5.328-2.27-2.271-.82-4.327-1.48-6.166-1.98l.787-2.69zm39.597-11.82c.689-.41 1.164-.77 1.424-1.08.273-.29.384-.6.334-.93-.038-.37-.22-.88-.546-1.52l-13.154-25.89 2.444-1.11 13.516 26.61c.495.97.745 1.79.749 2.44.004.66-.242 1.26-.74 1.82-.485.57-1.298 1.21-2.438 1.91l-1.639 1.01-1.981-2.04 2.031-1.22zm-36.476-16.86c1.038.16 2.322.42 3.851.78 1.54.32 2.759.63 3.655.92l-.212 3.2c-.98-.39-2.271-.82-3.872-1.26-1.613-.47-2.933-.8-3.96-.99l.538-2.65zm17.26 19.13l-10.526-20.72 11.197-5.68 10.473 20.61-2.39 1.21-9.24-18.19-6.455 3.28 9.295 18.3-2.354 1.19zm14.095-5.9l-10.274-20.22 2.408-1.09 10.219 20.11-2.353 1.2zm-13.557 14.38c1.414-2.69 2.33-4.86 2.749-6.51.418-1.65.456-3.28.111-4.9-.356-1.65-1.193-3.76-2.509-6.36l-4.711-9.27 2.372-1.07 4.657 9.17c1.485 2.92 2.425 5.27 2.818 7.04.417 1.77.41 3.55-.019 5.35-.418 1.77-1.35 4.29-2.796 7.57l-2.672-1.02zm-15.114-19.06c1.003.15 2.37.42 4.102.83 1.732.41 3.088.78 4.068 1.12l-.445 3.1c-.957-.47-2.284-.94-3.98-1.39-1.685-.49-3.124-.85-4.318-1.08l.573-2.58zm10.039 22.76c-.035-1.78-.343-4.18-.923-7.2-.556-3.04-1.12-5.45-1.692-7.22l1.43-.19 1.197-.2c.548 1.72 1.118 4.08 1.71 7.07.591 2.99.965 5.4 1.119 7.24l-2.841.5zm11.636-15.51c3.368.8 6.224 1.77 8.569 2.91l-.679 2.9c-2.466-1.5-5.222-2.65-8.269-3.47l.379-2.34zm52.304-24.78c.575 2.19.902 4.01.983 5.46.131 1.79-.481 3.03-1.836 3.72-1.451.74-3.195.31-5.232-1.29-1.619-1.3-3.444-3.34-5.478-6.1-2.009-2.78-4.377-6.62-7.104-11.51l-11.483 5.83-1.323-2.6 11.412-5.8-3.711-6.86 2.604-1.15 3.639 6.72 7.917-4.02 1.322 2.61-7.809 3.96c2.666 4.72 4.871 8.33 6.616 10.82 1.746 2.49 3.314 4.28 4.704 5.37.671.5 1.186.83 1.545 1.01.371.14.675.15.913.03.689-.35.88-1.24.573-2.67a26.774 26.774 0 00-1.097-3.66l2.845.13zm-12.629-16.56c-.754-.42-1.776-.85-3.067-1.27-1.291-.42-2.366-.71-3.226-.87l.647-2.44c.716.12 1.731.38 3.046.79 1.326.37 2.384.72 3.173 1.03l-.573 2.76zm-20.628 13.53c-.958-.65-2.299-1.37-4.021-2.17-1.711-.84-3.122-1.44-4.234-1.8l1.146-2.6c.992.3 2.337.83 4.036 1.58 1.722.74 3.074 1.4 4.055 1.98l-.982 3.01zm9.468 11.93l2.406 1.38-.419 1.56c-.944 3.38-1.504 5.31-1.68 5.79-.234.65-.455 1.51-.663 2.58l-2.637-1.04c.164-.56.226-1.09.187-1.58-.051-.51-.215-1.04-.493-1.59l-6.36-12.51-4.457 2.26-1.359-2.67 6.989-3.56 7.248 14.27 1.238-4.89zm13.759-2.51l.831 1.38c-1.257 1.11-3.012 2.54-5.267 4.29-2.267 1.72-4.131 3.08-5.591 4.09l-1.59-2.42a82.78 82.78 0 004.274-3.07l-4.783-9.41-4.137 2.1-1.268-2.5 10.662-5.41 1.269 2.49-3.994 2.03 4.529 8.92c1.993-1.61 3.452-2.83 4.377-3.66l.688 1.17zm36.235-38.64l1.14 2.25 10.38-5.28 1.07 2.11-22.83 11.59-1.07-2.1 9.95-5.06-1.14-2.24-7.66 3.89-1.04-2.03 7.67-3.89-1.09-2.14-8.73 4.43-1.07-2.1 8.73-4.44-1.61-3.17 2.53-1.2 1.58 3.1 8.95-4.54 1.07 2.1-8.95 4.55 1.09 2.14 8.13-4.13 1.03 2.03-8.13 4.13zm-15.18 6.95c-.89-.75-2.12-1.59-3.7-2.52-1.58-.93-2.89-1.61-3.91-2.05l1.36-2.44c.95.41 2.23 1.07 3.82 1.96 1.62.89 2.86 1.63 3.74 2.23l-1.31 2.82zm9 16.92l1.58-4.22 2.2 1.94c-.35.84-.76 1.83-1.22 2.99-.47 1.14-.87 2.15-1.19 3.04-.22.46-.47 1.2-.76 2.22l-2.55-1.13c.17-.5.24-.94.23-1.33-.01-.41-.1-.81-.3-1.19l-6.65-13.09-4.49 2.28-1.27-2.49 7.03-3.57 7.39 14.55zm7.84 3.15l-7.92-15.58 16.69-8.48 6.18 12.16c.42.83.62 1.52.6 2.07-.01.57-.26 1.1-.76 1.59-.46.51-1.26 1.11-2.4 1.81l-1.02.65-1.78-1.65 1.3-.8c.68-.43 1.14-.79 1.39-1.06.26-.25.37-.51.34-.76-.02-.26-.14-.63-.39-1.1l-.5-1-11.77 5.98 2.5 4.92-2.46 1.25zm8.48-18.53l-1.1-2.18-11.77 5.98 1.1 2.17 11.77-5.97zm-10.7 8.08l1.11 2.17 11.77-5.98-1.11-2.17-11.77 5.98zm41.21-43.28l9.31 21.52c.61 1.42.88 2.58.83 3.48-.02.91-.4 1.74-1.15 2.51-.71.78-1.9 1.65-3.56 2.62l-2.35 1.37-2.4-2.15 3.07-1.82c1.08-.64 1.83-1.19 2.26-1.65.42-.48.6-1 .55-1.57-.04-.61-.29-1.43-.75-2.45-.88-2.13-2.11-5.06-3.71-8.8-1.61-3.75-2.87-6.67-3.78-8.75l-4.1 2.08c1.37 4.33 2.22 8.16 2.56 11.49.36 3.28.2 6.54-.47 9.75-.65 3.2-1.88 6.78-3.69 10.76l-3.6-.82c1.93-3.8 3.28-7.19 4.03-10.17.77-3.02 1.02-6.05.77-9.09-.27-3.07-1.04-6.58-2.31-10.54l-4.38 2.22c1.08 4.9 1.38 9.38.91 13.45-.49 4.05-1.81 8.29-3.95 12.73l-3.12-1.02c2.16-4 3.49-7.86 3.99-11.58.51-3.76.32-7.82-.58-12.18l-4.53 2.3c-.29 4.19-.91 7.91-1.86 11.18l-2.94-.84c.83-2.91 1.4-6.02 1.71-9.35.31-3.33.29-6.39-.07-9.16l3.03-.83c.2 1.7.29 3.52.27 5.48l20.01-10.17zm13.69-12.29c.36 1.72.71 3.7 1.04 5.93l8.2-4.17 1.34 2.64c1.13 3.64 1.78 7.1 1.94 10.36.19 3.26-.06 6.54-.74 9.85-.69 3.28-1.83 6.93-3.42 10.93l-3.22-1.05c1.59-3.8 2.75-7.23 3.47-10.29.71-3.08 1.02-6.1.93-9.04-.1-2.97-.62-6.12-1.56-9.44l-6.6 3.36c.18 1.88.26 3.93.25 6.15 1.05.06 2.23.21 3.55.44 1.3.21 2.37.43 3.2.66l-.13 3.52c-.79-.31-1.82-.62-3.07-.91-1.25-.29-2.45-.5-3.6-.64-.08 1.6-.25 3.17-.49 4.69l-3.06-.91c.45-3.22.59-6.7.4-10.43-.2-3.73-.69-7.29-1.49-10.69l3.06-.96zm25.73 26.63l-16.23-31.95 2.64-1.26 16.19 31.89-2.6 1.32zm-6.62-23.02c4.82.48 8.45 1.05 10.9 1.69l-.19 3.5c-2.29-.75-4.26-1.29-5.9-1.62-1.61-.35-3.33-.6-5.17-.74l.36-2.83zm44.38-18.91l-14.27 7.25c.3 1.7.52 3.19.66 4.46l12.3-6.25 1.25 2.46c-.16 2.75-.62 5.91-1.37 9.49 2.35-.02 4.43.03 6.23.16l.38 3.49c-2.45-.41-5.6-.58-9.47-.53-3.84.03-7.07.23-9.71.58l-.2-2.86c2.73-.4 6-.66 9.8-.76.65-3.03 1.02-5.65 1.11-7.88l-11.91 6.05-1.19-2.27c-.18-1.76-.4-3.34-.66-4.73l-5.81 2.95-1.23-2.42 6.52-3.32c-.41-1.88-.78-3.45-1.08-4.7l-5.67 2.88-1.23-2.42 6.16-3.14c-.53-1.94-1.12-3.8-1.77-5.6l2.79-.97c.69 2.01 1.24 3.75 1.66 5.22l10.38-5.28 1.23 2.43-10.88 5.52c.5 1.93.88 3.49 1.12 4.68l13.63-6.92 1.23 2.43zm-28.12-2.63c.42 2.96.65 5.94.68 8.94l12.39 24.39-2.56 1.31-10.06-19.8c-.2 2.32-.58 4.81-1.13 7.49l-2.87-.97c.66-2.7 1.04-5.86 1.14-9.5.11-3.68-.09-7.35-.57-11.02l2.98-.84zm-986.923 231.88c.544 3.01.862 5.99.952 8.94l12.139 23.89-2.603 1.32-9.729-19.15a68.28 68.28 0 01-1.027 7.25l-2.956-.69c.671-3.16 1.019-6.53 1.044-10.14.048-3.61-.255-7.15-.909-10.62l3.089-.8zm36.537 17.87l-.461 3.42c-5.621-.59-10.488-1.75-14.602-3.49-1.108 3.88-3.029 8.38-5.763 13.47l-3.282-1.25c3.093-5.04 5.198-9.55 6.318-13.52-2.657-1.41-5.185-3.17-7.584-5.3-2.375-2.15-4.717-4.76-7.027-7.83l-1.355.69-1.377-2.71 18.294-9.3 1.359 2.68c1.038 3.69 1.662 7.12 1.873 10.31.2 3.16-.007 6.31-.618 9.46 3.695 1.57 8.437 2.69 14.225 3.37zm-29.69-15.88c2.115 2.64 4.187 4.86 6.214 6.67a35.846 35.846 0 006.487 4.56c.519-2.75.669-5.49.448-8.22-.232-2.75-.811-5.69-1.738-8.81l-11.411 5.8zm27.54-20.09c.533 3.11.832 6.11.899 9.01l12.302 24.21-2.603 1.32-9.911-19.5c-.155 1.87-.456 4.16-.904 6.87l-2.85-.93c.626-2.83.963-6.05 1.011-9.66a54.09 54.09 0 00-.873-10.55l2.929-.77zm20.738.72l4.548 8.95 5.634-2.86 1.323 2.6-23.323 11.85-1.322-2.6 5.563-2.83-4.548-8.95-3.994 2.03-1.268-2.49 3.994-2.03-3.388-6.67 2.729-1.25 3.333 6.56 6.847-3.48-3.388-6.67 2.658-1.21 3.334 6.56 4.422-2.25 1.268 2.5-4.422 2.24zm-2.603 1.33l-6.847 3.47 4.547 8.96 6.847-3.48-4.547-8.95zm-4.468 28.47c.872-1.64 1.67-3.57 2.395-5.8.713-2.24 1.225-4.27 1.535-6.07l2.831.72c-.382 1.77-.935 3.81-1.66 6.09a93.539 93.539 0 01-2.179 6.04l-2.922-.98zm11.17-15.46c1.398.34 3.268.93 5.611 1.77 2.367.83 4.268 1.57 5.703 2.22l-.607 2.96c-1.293-.72-3.069-1.48-5.328-2.28-2.271-.82-4.327-1.48-6.166-1.98l.787-2.69zm39.597-11.82c.689-.41 1.164-.77 1.424-1.08.273-.29.384-.6.334-.93-.038-.37-.22-.88-.546-1.52l-13.154-25.89 2.444-1.11 13.516 26.61c.495.97.745 1.79.749 2.44.004.66-.242 1.26-.74 1.82-.485.57-1.298 1.21-2.438 1.91l-1.639 1.01-1.981-2.04 2.031-1.22zm-36.476-16.86c1.038.16 2.322.42 3.851.78 1.54.32 2.759.63 3.655.92l-.212 3.21c-.98-.4-2.271-.83-3.872-1.27-1.613-.46-2.933-.8-3.96-.99l.538-2.65zm17.26 19.13l-10.526-20.71 11.197-5.69 10.473 20.61-2.39 1.21-9.24-18.19-6.455 3.28 9.295 18.3-2.354 1.19zm14.095-5.9l-10.274-20.22 2.408-1.09 10.219 20.11-2.353 1.2zm-13.557 14.38c1.414-2.69 2.33-4.86 2.749-6.51.418-1.65.456-3.28.111-4.9-.356-1.65-1.193-3.76-2.509-6.36l-4.711-9.27 2.372-1.07 4.657 9.17c1.485 2.92 2.425 5.27 2.818 7.04.417 1.77.41 3.55-.019 5.35-.418 1.77-1.35 4.29-2.796 7.57l-2.672-1.02zm-15.114-19.06c1.003.15 2.37.42 4.102.83 1.732.41 3.088.78 4.068 1.12l-.445 3.1c-.957-.47-2.284-.94-3.98-1.39-1.685-.49-3.124-.85-4.318-1.08l.573-2.58zm10.039 22.76c-.035-1.78-.343-4.18-.923-7.2-.556-3.04-1.12-5.45-1.692-7.22l1.43-.19 1.197-.2c.548 1.72 1.118 4.08 1.71 7.07.591 2.99.965 5.4 1.119 7.24l-2.841.5zm11.636-15.51c3.368.8 6.224 1.77 8.569 2.91l-.679 2.9c-2.466-1.49-5.222-2.65-8.269-3.47l.379-2.34zm52.304-24.78c.575 2.19.902 4.01.983 5.47.131 1.78-.481 3.02-1.836 3.71-1.451.74-3.195.31-5.232-1.29-1.619-1.3-3.444-3.34-5.478-6.1-2.009-2.78-4.377-6.62-7.104-11.51l-11.483 5.83-1.323-2.6 11.412-5.8-3.711-6.86 2.604-1.15 3.639 6.73 7.917-4.03 1.322 2.61-7.809 3.96c2.666 4.72 4.871 8.33 6.616 10.82 1.746 2.49 3.314 4.28 4.704 5.37.671.5 1.186.84 1.545 1.01.371.14.675.15.913.03.689-.35.88-1.24.573-2.67a26.774 26.774 0 00-1.097-3.66l2.845.13zm-12.629-16.56c-.754-.42-1.776-.85-3.067-1.27-1.291-.42-2.366-.71-3.226-.87l.647-2.44c.716.12 1.731.38 3.046.79 1.326.37 2.384.72 3.173 1.03l-.573 2.76zm-20.628 13.53c-.958-.65-2.299-1.37-4.021-2.17-1.711-.84-3.122-1.44-4.234-1.8l1.146-2.6c.992.3 2.337.83 4.036 1.58 1.722.74 3.074 1.4 4.055 1.98l-.982 3.01zm9.468 11.93l2.406 1.38-.419 1.56c-.944 3.38-1.504 5.31-1.68 5.79-.234.65-.455 1.51-.663 2.58l-2.637-1.04c.164-.56.226-1.09.187-1.58-.051-.51-.215-1.04-.493-1.59l-6.36-12.51-4.457 2.26-1.359-2.67 6.989-3.55 7.248 14.26 1.238-4.89zm13.759-2.51l.831 1.38c-1.257 1.11-3.012 2.54-5.267 4.29-2.267 1.72-4.131 3.08-5.591 4.09l-1.59-2.42a82.78 82.78 0 004.274-3.07l-4.783-9.41-4.137 2.1-1.268-2.5 10.662-5.41 1.269 2.49-3.994 2.03 4.529 8.92c1.993-1.61 3.452-2.83 4.377-3.66l.688 1.17zm36.234-38.64l1.141 2.25 10.378-5.28 1.069 2.11-22.823 11.59-1.069-2.1 9.949-5.05-1.141-2.25-7.667 3.89-1.033-2.03 7.667-3.89-1.087-2.14-8.737 4.44-1.069-2.11 8.737-4.44-1.613-3.17 2.533-1.2 1.576 3.1 8.951-4.54 1.069 2.1-8.951 4.55 1.087 2.14 8.131-4.13 1.033 2.03-8.131 4.13zm-15.179 6.95c-.887-.75-2.121-1.59-3.701-2.52-1.58-.93-2.885-1.61-3.913-2.05l1.362-2.44c.956.41 2.231 1.07 3.823 1.96 1.615.89 2.86 1.63 3.735 2.23l-1.306 2.82zm9 16.92l1.583-4.22 2.195 1.94c-.353.84-.758 1.84-1.215 2.99-.47 1.14-.869 2.15-1.197 3.04-.212.46-.464 1.2-.755 2.22l-2.548-1.13c.164-.5.239-.94.224-1.32-.002-.42-.1-.82-.294-1.2l-6.649-13.09-4.493 2.28-1.269-2.49 7.026-3.57 7.392 14.55zm7.838 3.15l-7.918-15.58 16.689-8.48 6.179 12.16c.422.83.624 1.52.603 2.07-.008.57-.261 1.1-.759 1.6-.461.5-1.263 1.1-2.403 1.8l-1.015.65-1.782-1.65 1.301-.8c.677-.43 1.14-.79 1.388-1.06.261-.25.373-.51.335-.76-.013-.26-.141-.63-.383-1.1l-.507-1-11.768 5.98 2.5 4.92-2.46 1.25zm8.485-18.53l-1.105-2.18-11.768 5.98 1.105 2.17 11.768-5.97zm-10.699 8.08l1.105 2.17 11.768-5.97-1.105-2.18-11.768 5.98zm41.201-43.28l9.316 21.52c.605 1.42.881 2.58.827 3.48-.018.91-.4 1.74-1.147 2.51-.71.78-1.897 1.65-3.561 2.62l-2.352 1.37-2.393-2.15 3.065-1.82c1.081-.64 1.835-1.19 2.261-1.65.415-.48.596-1 .545-1.57-.04-.61-.29-1.43-.749-2.45-.873-2.13-2.108-5.06-3.706-8.79-1.611-3.76-2.87-6.68-3.778-8.76l-4.101 2.08c1.364 4.33 2.217 8.16 2.561 11.49a31.07 31.07 0 01-.474 9.75c-.647 3.2-1.876 6.78-3.688 10.76l-3.6-.82c1.931-3.8 3.275-7.18 4.031-10.17.767-3.02 1.022-6.05.764-9.09-.27-3.07-1.038-6.58-2.304-10.54l-4.386 2.23c1.081 4.89 1.384 9.37.909 13.44-.487 4.05-1.801 8.29-3.943 12.73l-3.119-1.02c2.157-4 3.485-7.86 3.986-11.58.513-3.76.319-7.82-.579-12.18l-4.529 2.3c-.295 4.19-.915 7.91-1.86 11.18l-2.939-.84c.828-2.91 1.398-6.02 1.71-9.35.313-3.33.287-6.38-.076-9.16l3.035-.83c.202 1.7.291 3.52.268 5.48l20.006-10.17zm13.691-12.29c.369 1.72.716 3.7 1.04 5.93l8.202-4.17 1.341 2.64c1.132 3.64 1.781 7.1 1.945 10.36a37.77 37.77 0 01-.742 9.85c-.694 3.28-1.834 6.93-3.418 10.93l-3.227-1.05c1.598-3.8 2.756-7.23 3.476-10.29.708-3.08 1.016-6.1.926-9.04-.103-2.97-.624-6.11-1.563-9.44l-6.598 3.36c.179 1.88.264 3.93.254 6.15 1.05.06 2.232.21 3.545.44 1.302.21 2.37.43 3.207.66l-.139 3.52c-.789-.31-1.81-.62-3.064-.91-1.255-.29-2.455-.5-3.6-.63a45.955 45.955 0 01-.489 4.69l-3.065-.92c.457-3.22.589-6.7.398-10.43-.191-3.73-.685-7.29-1.482-10.69l3.053-.96zm25.735 26.63l-16.234-31.95 2.639-1.25 16.198 31.88-2.603 1.32zm-6.624-23.02c4.821.48 8.456 1.05 10.905 1.69l-.192 3.5c-2.295-.75-4.26-1.29-5.896-1.62-1.612-.35-3.337-.6-5.175-.74l.358-2.83zm44.381-18.91l-14.264 7.25c.297 1.7.515 3.19.655 4.46l12.303-6.25 1.25 2.46c-.161 2.75-.618 5.91-1.37 9.49 2.349-.02 4.424.03 6.226.16l.38 3.49c-2.447-.41-5.603-.58-9.466-.53-3.84.03-7.077.23-9.71.58l-.198-2.86c2.729-.4 5.995-.66 9.799-.76.648-3.03 1.019-5.65 1.112-7.88l-11.911 6.05-1.195-2.26a57.486 57.486 0 00-.657-4.74l-5.813 2.95-1.232-2.42 6.526-3.32a228.87 228.87 0 00-1.085-4.7l-5.671 2.88-1.232-2.42 6.17-3.13a78.897 78.897 0 00-1.771-5.61l2.784-.97a98.218 98.218 0 011.661 5.22l10.378-5.28 1.232 2.43-10.877 5.52c.502 1.93.875 3.49 1.122 4.68l13.622-6.92 1.232 2.43zm-28.12-2.63c.424 2.96.652 5.94.683 8.94l12.393 24.39-2.567 1.31-10.056-19.79c-.2 2.31-.577 4.81-1.132 7.48l-2.869-.97c.663-2.69 1.042-5.86 1.138-9.5a68.36 68.36 0 00-.572-11.02l2.982-.84zm515.079-477.123c.544 3.014.862 5.993.952 8.938l12.139 23.893-2.603 1.323-9.729-19.15a68.372 68.372 0 01-1.027 7.251l-2.956-.696c.671-3.153 1.019-6.53 1.044-10.132a53.315 53.315 0 00-.909-10.62l3.089-.807zm36.537 17.868l-.461 3.42c-5.621-.584-10.488-1.745-14.602-3.484-1.108 3.883-3.029 8.374-5.763 13.472l-3.282-1.249c3.093-5.041 5.198-9.55 6.318-13.529-2.657-1.402-5.185-3.169-7.584-5.3-2.375-2.143-4.717-4.752-7.027-7.826l-1.355.689-1.377-2.711 18.294-9.294 1.359 2.674c1.038 3.691 1.662 7.127 1.873 10.31.2 3.159-.007 6.315-.618 9.467 3.695 1.563 8.437 2.683 14.225 3.361zm-29.69-15.873c2.115 2.634 4.187 4.857 6.214 6.668a35.673 35.673 0 006.487 4.556c.519-2.746.669-5.484.448-8.214-.232-2.753-.811-5.689-1.738-8.808l-11.411 5.798zm27.54-20.094c.533 3.109.832 6.112.899 9.01l12.302 24.214-2.603 1.323-9.911-19.507c-.155 1.873-.456 4.165-.904 6.875l-2.85-.93c.626-2.83.963-6.052 1.011-9.666a54.113 54.113 0 00-.873-10.549l2.929-.77zm20.738.725l4.548 8.951 5.634-2.863 1.323 2.604-23.323 11.849-1.322-2.603 5.563-2.827-4.548-8.951-3.994 2.03-1.268-2.497 3.994-2.029-3.388-6.669 2.729-1.252 3.333 6.562 6.847-3.479-3.388-6.668 2.658-1.216 3.334 6.562 4.422-2.247 1.268 2.496-4.422 2.247zm-2.603 1.323l-6.847 3.478 4.547 8.951 6.847-3.478-4.547-8.951zm-4.468 28.472c.872-1.64 1.67-3.571 2.395-5.794.713-2.246 1.225-4.271 1.535-6.074l2.831.715c-.382 1.78-.935 3.811-1.66 6.093a93.887 93.887 0 01-2.179 6.043l-2.922-.983zm11.17-15.457c1.398.337 3.268.928 5.611 1.771 2.367.832 4.268 1.571 5.703 2.217l-.607 2.956c-1.293-.719-3.069-1.477-5.328-2.273-2.271-.821-4.327-1.481-6.166-1.982l.787-2.689zm39.597-11.817c.689-.41 1.164-.771 1.424-1.083.273-.288.384-.599.334-.932-.038-.37-.22-.875-.546-1.517l-13.154-25.89 2.444-1.107 13.516 26.603c.495.975.745 1.79.749 2.446.004.656-.242 1.26-.74 1.812-.485.575-1.298 1.212-2.438 1.911l-1.639 1.013-1.981-2.045 2.031-1.211zm-36.476-16.867c1.038.16 2.322.42 3.851.78 1.54.324 2.759.632 3.655.924l-.212 3.204c-.98-.399-2.271-.82-3.872-1.263-1.613-.467-2.933-.798-3.96-.994l.538-2.651zm17.26 19.137l-10.526-20.719 11.197-5.689 10.473 20.612-2.39 1.214-9.24-18.187-6.455 3.279 9.295 18.294-2.354 1.196zm14.095-5.905l-10.274-20.22 2.408-1.088 10.219 20.113-2.353 1.195zM975.91 928.24c1.414-2.693 2.33-4.863 2.749-6.511.418-1.649.456-3.283.111-4.903-.356-1.643-1.193-3.761-2.509-6.352l-4.711-9.272 2.372-1.071 4.657 9.165c1.485 2.924 2.425 5.274 2.818 7.048.417 1.763.41 3.546-.019 5.349-.418 1.768-1.35 4.29-2.796 7.567l-2.672-1.02zm-15.114-19.062c1.003.149 2.37.426 4.102.832 1.732.407 3.088.78 4.068 1.119l-.445 3.098c-.957-.471-2.284-.934-3.98-1.388-1.685-.49-3.124-.85-4.318-1.081l.573-2.58zm10.039 22.762c-.035-1.777-.343-4.178-.923-7.204-.556-3.037-1.12-5.442-1.692-7.216l1.43-.188 1.197-.204c.548 1.725 1.118 4.083 1.71 7.073.591 2.989.965 5.402 1.119 7.237l-2.841.502zm11.636-15.513c3.368.801 6.224 1.772 8.569 2.914l-.679 2.903c-2.466-1.499-5.222-2.656-8.269-3.471l.379-2.346zm52.299-24.78c.58 2.191.91 4.013.99 5.468.13 1.788-.48 3.026-1.84 3.715-1.45.737-3.19.306-5.23-1.29-1.62-1.302-3.44-3.335-5.48-6.101-2.01-2.778-4.38-6.615-7.1-11.511l-11.49 5.835-1.32-2.604 11.41-5.798-3.71-6.863 2.61-1.144 3.64 6.721 7.91-4.022 1.33 2.603-7.81 3.968c2.66 4.717 4.87 8.323 6.61 10.816 1.75 2.493 3.32 4.284 4.71 5.372.67.497 1.18.833 1.54 1.01.37.141.68.15.91.03.69-.351.88-1.24.58-2.669a27.444 27.444 0 00-1.1-3.661l2.84.125zm-12.62-16.555c-.76-.425-1.78-.847-3.07-1.268-1.29-.422-2.37-.713-3.23-.874l.65-2.437c.72.114 1.73.376 3.05.785 1.32.373 2.38.718 3.17 1.035l-.57 2.759zm-20.63 13.531c-.96-.649-2.301-1.374-4.023-2.174-1.711-.836-3.122-1.435-4.234-1.798l1.146-2.601c.992.304 2.337.832 4.036 1.584 1.725.74 3.075 1.4 4.055 1.978l-.98 3.011zm9.47 11.925l2.4 1.38-.42 1.559c-.94 3.381-1.5 5.311-1.68 5.789-.23.657-.45 1.517-.66 2.58l-2.64-1.038c.17-.562.23-1.087.19-1.576-.05-.512-.22-1.042-.49-1.589l-6.36-12.517-4.46 2.265-1.359-2.675 6.989-3.551 7.25 14.265 1.24-4.892zm13.75-2.504l.84 1.373c-1.26 1.117-3.02 2.547-5.27 4.291-2.27 1.72-4.13 3.086-5.59 4.097l-1.59-2.423a82.642 82.642 0 004.27-3.069l-4.78-9.414-4.14 2.102-1.27-2.497 10.67-5.417 1.26 2.496-3.99 2.029 4.53 8.916c1.99-1.611 3.45-2.831 4.38-3.66l.68 1.176zm36.24-38.644l1.14 2.247 10.38-5.273 1.07 2.104-22.83 11.596-1.07-2.104 9.95-5.055-1.14-2.247-7.66 3.896-1.04-2.033 7.67-3.895-1.09-2.14-8.73 4.439-1.07-2.104 8.73-4.439-1.61-3.174 2.53-1.197 1.58 3.103 8.95-4.548 1.07 2.104-8.95 4.548 1.09 2.139 8.13-4.131 1.03 2.033-8.13 4.131zm-15.18 6.949c-.89-.746-2.12-1.584-3.7-2.516-1.58-.932-2.89-1.616-3.91-2.05l1.36-2.442c.95.411 2.23 1.065 3.82 1.961 1.62.884 2.86 1.628 3.74 2.23l-1.31 2.817zm9 16.919l1.58-4.214 2.2 1.935c-.35.838-.76 1.836-1.22 2.996a73.476 73.476 0 00-1.19 3.031c-.22.466-.47 1.207-.76 2.223l-2.55-1.129c.17-.502.24-.943.23-1.325-.01-.417-.1-.816-.3-1.197l-6.65-13.087-4.49 2.283-1.27-2.497 7.03-3.569 7.39 14.55zm7.84 3.151l-7.92-15.584 16.69-8.479 6.18 12.161c.42.832.62 1.522.6 2.071-.01.572-.26 1.105-.76 1.597-.46.504-1.26 1.105-2.4 1.804l-1.02.651-1.78-1.653 1.3-.795c.68-.434 1.14-.788 1.39-1.064.26-.253.37-.504.34-.754-.02-.262-.14-.631-.39-1.107l-.5-.998-11.77 5.979 2.5 4.921-2.46 1.25zm8.48-18.533l-1.1-2.176-11.77 5.979 1.1 2.176 11.77-5.979zm-10.7 8.083l1.11 2.175 11.77-5.979-1.11-2.175-11.77 5.979zm41.21-43.277l9.31 21.514c.61 1.427.88 2.588.83 3.483-.02.906-.4 1.744-1.15 2.512-.71.78-1.9 1.652-3.56 2.617l-2.35 1.374-2.4-2.149 3.07-1.826c1.08-.639 1.83-1.187 2.26-1.643.42-.479.6-1.005.55-1.578-.04-.607-.29-1.423-.75-2.445-.88-2.13-2.11-5.061-3.71-8.796a1364.54 1364.54 0 00-3.78-8.759l-4.1 2.084c1.37 4.332 2.22 8.161 2.56 11.486.36 3.289.2 6.54-.47 9.752-.65 3.201-1.88 6.786-3.69 10.757l-3.6-.817c1.93-3.793 3.28-7.183 4.03-10.169a27.46 27.46 0 00.77-9.093c-.27-3.063-1.04-6.576-2.31-10.539l-4.38 2.228c1.08 4.895 1.38 9.377.91 13.447-.49 4.046-1.81 8.288-3.95 12.726l-3.12-1.017c2.16-3.997 3.49-7.858 3.99-11.582.51-3.76.32-7.82-.58-12.179l-4.53 2.301c-.29 4.188-.91 7.913-1.86 11.175l-2.94-.84c.83-2.903 1.4-6.019 1.71-9.349.31-3.329.29-6.382-.07-9.158l3.03-.825c.2 1.692.29 3.516.27 5.472l20.01-10.164zm13.69-12.295c.36 1.727.71 3.704 1.04 5.932l8.2-4.167 1.34 2.639c1.13 3.642 1.78 7.096 1.94 10.363.19 3.255-.06 6.536-.74 9.844-.69 3.284-1.83 6.929-3.42 10.934l-3.22-1.053c1.59-3.802 2.75-7.233 3.47-10.29.71-3.082 1.02-6.095.93-9.04-.1-2.969-.62-6.114-1.56-9.435l-6.6 3.352c.18 1.883.26 3.933.25 6.152 1.05.064 2.23.212 3.55.442 1.3.206 2.37.426 3.2.659l-.13 3.525c-.79-.317-1.82-.62-3.07-.91a33.22 33.22 0 00-3.6-.639 44.542 44.542 0 01-.49 4.69l-3.06-.911c.45-3.223.59-6.7.4-10.431-.2-3.732-.69-7.295-1.49-10.688l3.06-.968zm25.73 26.632l-16.23-31.953 2.64-1.251 16.19 31.881-2.6 1.323zm-6.62-23.016c4.82.481 8.45 1.042 10.9 1.683l-.19 3.507c-2.29-.748-4.26-1.29-5.9-1.626a38.96 38.96 0 00-5.17-.736l.36-2.828zm44.38-18.915l-14.27 7.247c.3 1.704.52 3.193.66 4.468l12.3-6.251 1.25 2.461c-.16 2.744-.62 5.907-1.37 9.49 2.35-.027 4.43.025 6.23.157l.38 3.486c-2.45-.402-5.6-.578-9.47-.53-3.84.037-7.07.231-9.71.582l-.2-2.861c2.73-.4 6-.653 9.8-.761.65-3.022 1.02-5.648 1.11-7.878l-11.91 6.051-1.19-2.264c-.18-1.764-.4-3.343-.66-4.736l-5.81 2.953-1.23-2.425 6.52-3.316a225.96 225.96 0 00-1.08-4.698l-5.67 2.881-1.23-2.425 6.16-3.134a73.027 73.027 0 00-1.77-5.606l2.79-.966c.69 2.011 1.24 3.749 1.66 5.213l10.38-5.273 1.23 2.425-10.88 5.527c.5 1.928.88 3.488 1.12 4.679l13.63-6.921 1.23 2.425zm-28.12-2.628c.42 2.955.65 5.935.68 8.94l12.39 24.393-2.56 1.304-10.06-19.792c-.2 2.315-.58 4.81-1.13 7.485l-2.87-.965c.66-2.7 1.04-5.869 1.14-9.507.11-3.674-.09-7.346-.57-11.016l2.98-.842zM125.767 983.347c.544 3.014.862 5.993.952 8.938l12.139 23.895-2.603 1.32-9.729-19.149a68.297 68.297 0 01-1.027 7.249l-2.956-.69c.671-3.16 1.019-6.534 1.044-10.136a53.315 53.315 0 00-.909-10.62l3.089-.807zm36.537 17.873l-.461 3.42c-5.621-.59-10.488-1.75-14.602-3.49-1.108 3.88-3.029 8.37-5.763 13.47l-3.282-1.25c3.093-5.04 5.198-9.55 6.318-13.525-2.657-1.402-5.185-3.169-7.584-5.3-2.375-2.143-4.717-4.752-7.027-7.826l-1.355.689-1.377-2.711 18.294-9.294 1.359 2.674c1.038 3.691 1.662 7.127 1.873 10.31.2 3.159-.007 6.315-.618 9.467 3.695 1.563 8.437 2.686 14.225 3.366zm-29.69-15.878c2.115 2.634 4.187 4.857 6.214 6.668a35.673 35.673 0 006.487 4.556c.519-2.746.669-5.484.448-8.214-.232-2.753-.811-5.689-1.738-8.808l-11.411 5.798zm27.54-20.094c.533 3.109.832 6.112.899 9.01l12.302 24.214-2.603 1.323-9.911-19.507c-.155 1.873-.456 4.165-.904 6.875l-2.85-.93c.626-2.83.963-6.052 1.011-9.666a54.113 54.113 0 00-.873-10.549l2.929-.77zm20.738.725l4.548 8.951 5.634-2.863 1.323 2.604-23.323 11.849-1.322-2.603 5.563-2.827-4.548-8.951-3.994 2.03-1.268-2.497 3.994-2.029-3.388-6.669 2.729-1.252 3.333 6.562 6.847-3.479-3.388-6.668 2.658-1.216 3.334 6.562 4.422-2.247 1.268 2.496-4.422 2.247zm-2.603 1.323l-6.847 3.478 4.547 8.951 6.847-3.478-4.547-8.951zm-4.468 28.472c.872-1.64 1.67-3.571 2.395-5.794.713-2.246 1.225-4.271 1.535-6.074l2.831.715c-.382 1.78-.935 3.811-1.66 6.093a93.887 93.887 0 01-2.179 6.043l-2.922-.983zm11.17-15.457c1.398.337 3.268.928 5.611 1.771 2.367.832 4.268 1.571 5.703 2.217l-.607 2.956c-1.293-.719-3.069-1.477-5.328-2.273-2.271-.821-4.327-1.481-6.166-1.982l.787-2.689zm39.597-11.817c.689-.41 1.164-.771 1.424-1.083.273-.288.384-.599.334-.932-.038-.37-.22-.875-.546-1.517l-13.154-25.89 2.444-1.107 13.516 26.603c.495.975.745 1.79.749 2.446.004.656-.242 1.26-.74 1.812-.485.575-1.298 1.212-2.438 1.911l-1.639 1.013-1.981-2.045 2.031-1.211zm-36.476-16.867c1.038.16 2.322.42 3.851.78 1.54.324 2.759.632 3.655.924l-.212 3.204c-.98-.399-2.271-.82-3.872-1.263-1.613-.467-2.933-.798-3.96-.994l.538-2.651zm17.26 19.137l-10.526-20.719 11.197-5.689 10.473 20.612-2.39 1.214-9.24-18.187-6.455 3.279 9.295 18.294-2.354 1.196zm14.095-5.905l-10.274-20.22 2.408-1.088 10.219 20.113-2.353 1.195zM205.91 979.24c1.414-2.693 2.33-4.863 2.749-6.511.418-1.649.456-3.283.111-4.903-.356-1.643-1.193-3.761-2.509-6.352l-4.711-9.272 2.372-1.071 4.657 9.165c1.485 2.924 2.425 5.274 2.818 7.048.417 1.763.41 3.546-.019 5.349-.418 1.768-1.35 4.29-2.796 7.567l-2.672-1.02zm-15.114-19.062c1.003.149 2.37.426 4.102.832 1.732.407 3.088.78 4.068 1.119l-.445 3.098c-.957-.471-2.284-.934-3.98-1.388-1.685-.49-3.124-.85-4.318-1.081l.573-2.58zm10.039 22.762c-.035-1.777-.343-4.178-.923-7.204-.556-3.037-1.12-5.442-1.692-7.216l1.43-.188 1.197-.204c.548 1.725 1.118 4.083 1.71 7.073.591 2.989.965 5.402 1.119 7.237l-2.841.502zm11.636-15.513c3.368.801 6.224 1.772 8.569 2.914l-.679 2.903c-2.466-1.499-5.222-2.656-8.269-3.471l.379-2.346zm52.304-24.78c.575 2.191.902 4.013.983 5.468.131 1.788-.481 3.026-1.836 3.715-1.451.737-3.195.306-5.232-1.29-1.619-1.302-3.444-3.335-5.478-6.101-2.009-2.778-4.377-6.615-7.104-11.511l-11.483 5.835-1.323-2.604 11.412-5.798-3.711-6.863 2.604-1.144 3.639 6.721 7.917-4.022 1.322 2.603-7.809 3.968c2.666 4.717 4.871 8.323 6.616 10.816 1.746 2.493 3.314 4.284 4.704 5.372.671.497 1.186.833 1.545 1.01.371.141.675.15.913.03.689-.351.88-1.24.573-2.669a26.579 26.579 0 00-1.097-3.661l2.845.125zm-12.629-16.555c-.754-.425-1.776-.847-3.067-1.268-1.291-.422-2.366-.713-3.226-.874l.647-2.437c.716.114 1.731.376 3.046.785 1.326.373 2.384.718 3.173 1.035l-.573 2.759zm-20.628 13.531c-.958-.649-2.299-1.374-4.021-2.174-1.711-.836-3.122-1.435-4.234-1.798l1.146-2.601c.992.304 2.337.832 4.036 1.584 1.722.74 3.074 1.4 4.055 1.978l-.982 3.011zm9.468 11.925l2.406 1.38-.419 1.559c-.944 3.381-1.504 5.311-1.68 5.789-.234.657-.455 1.517-.663 2.58l-2.637-1.038c.164-.562.226-1.087.187-1.576-.051-.512-.215-1.042-.493-1.589l-6.36-12.517-4.457 2.265-1.359-2.675 6.989-3.551 7.248 14.265 1.238-4.892zm13.759-2.504l.831 1.373c-1.257 1.117-3.012 2.547-5.267 4.291-2.267 1.72-4.131 3.086-5.591 4.097l-1.59-2.423a83.947 83.947 0 004.274-3.069l-4.783-9.414-4.137 2.102-1.268-2.497 10.662-5.417 1.269 2.496-3.994 2.029 4.529 8.916c1.993-1.611 3.452-2.831 4.377-3.66l.688 1.176zm36.234-38.644l1.141 2.247 10.378-5.273 1.069 2.104-22.823 11.596-1.069-2.104 9.949-5.055-1.141-2.247-7.667 3.896-1.033-2.033 7.667-3.895-1.087-2.14-8.737 4.439-1.069-2.104 8.737-4.439-1.613-3.174 2.533-1.197 1.576 3.103 8.951-4.548 1.069 2.104-8.951 4.548 1.087 2.139 8.131-4.131 1.033 2.033-8.131 4.131zm-15.179 6.949c-.887-.746-2.121-1.584-3.701-2.516-1.58-.932-2.885-1.616-3.913-2.05l1.362-2.442c.956.411 2.231 1.065 3.823 1.961 1.615.884 2.86 1.628 3.735 2.23l-1.306 2.817zm9 16.919l1.583-4.214 2.195 1.935c-.353.838-.758 1.836-1.215 2.996a88.392 88.392 0 00-1.197 3.031c-.212.466-.464 1.207-.755 2.223l-2.548-1.129c.164-.502.239-.943.224-1.325a2.633 2.633 0 00-.294-1.197l-6.649-13.087-4.493 2.283-1.269-2.497 7.026-3.569 7.392 14.55zm7.838 3.151l-7.918-15.584 16.689-8.479 6.179 12.161c.422.832.624 1.522.603 2.071-.008.572-.261 1.105-.759 1.597-.461.504-1.263 1.105-2.403 1.804l-1.015.651-1.782-1.653 1.301-.795c.677-.434 1.14-.788 1.388-1.064.261-.253.373-.504.335-.754-.013-.262-.141-.631-.383-1.107l-.507-.998-11.768 5.979 2.5 4.921-2.46 1.25zm8.485-18.533l-1.105-2.176-11.768 5.979 1.105 2.176 11.768-5.979zm-10.699 8.083l1.105 2.175 11.768-5.979-1.105-2.175-11.768 5.979zm41.201-43.277l9.316 21.514c.605 1.427.881 2.588.827 3.483-.018.906-.4 1.744-1.147 2.512-.71.78-1.897 1.652-3.561 2.617l-2.352 1.374-2.393-2.149 3.065-1.826c1.081-.639 1.835-1.187 2.261-1.643.415-.479.596-1.005.545-1.578-.04-.607-.29-1.423-.749-2.445a662.784 662.784 0 00-3.706-8.796c-1.611-3.758-2.87-6.678-3.778-8.759l-4.101 2.084c1.364 4.332 2.217 8.161 2.561 11.486.355 3.289.197 6.54-.474 9.752-.647 3.201-1.876 6.786-3.688 10.757l-3.6-.817c1.931-3.793 3.275-7.183 4.031-10.169a27.325 27.325 0 00.764-9.093c-.27-3.063-1.038-6.576-2.304-10.539l-4.386 2.228c1.081 4.895 1.384 9.377.909 13.447-.487 4.046-1.801 8.288-3.943 12.726l-3.119-1.017c2.157-3.997 3.485-7.858 3.986-11.582.513-3.76.319-7.82-.579-12.179l-4.529 2.301c-.295 4.188-.915 7.913-1.86 11.175l-2.939-.84c.828-2.903 1.398-6.019 1.71-9.349.313-3.329.287-6.382-.076-9.158l3.035-.825c.202 1.692.291 3.516.268 5.472l20.006-10.164zm13.691-12.295a92.09 92.09 0 011.04 5.932l8.202-4.167 1.341 2.639c1.132 3.642 1.781 7.096 1.945 10.363a37.733 37.733 0 01-.742 9.844c-.694 3.284-1.834 6.929-3.418 10.934l-3.227-1.053c1.598-3.802 2.756-7.233 3.476-10.29.708-3.082 1.016-6.095.926-9.04-.103-2.969-.624-6.114-1.563-9.435l-6.598 3.352c.179 1.883.264 3.933.254 6.152 1.05.064 2.232.212 3.545.442 1.302.206 2.37.426 3.207.659l-.139 3.525c-.789-.317-1.81-.62-3.064-.91a33.654 33.654 0 00-3.6-.639 45.632 45.632 0 01-.489 4.69l-3.065-.911c.457-3.223.589-6.7.398-10.431-.191-3.732-.685-7.295-1.482-10.688l3.053-.968zm25.735 26.632l-16.234-31.953 2.639-1.251 16.198 31.881-2.603 1.323zm-6.624-23.016c4.821.481 8.456 1.042 10.905 1.683l-.192 3.507c-2.295-.748-4.26-1.29-5.896-1.626a39.134 39.134 0 00-5.175-.736l.358-2.828zm44.381-18.915l-14.264 7.247c.297 1.704.515 3.193.655 4.468l12.303-6.251 1.25 2.461c-.161 2.744-.618 5.907-1.37 9.49 2.349-.027 4.424.025 6.226.157l.38 3.486c-2.447-.402-5.603-.578-9.466-.53-3.84.037-7.077.231-9.71.582l-.198-2.861c2.729-.4 5.995-.653 9.799-.761.648-3.022 1.019-5.648 1.112-7.878l-11.911 6.051-1.195-2.264a57.921 57.921 0 00-.657-4.736l-5.813 2.953-1.232-2.425 6.526-3.316a228.278 228.278 0 00-1.085-4.698l-5.671 2.881-1.232-2.425 6.17-3.134a79.77 79.77 0 00-1.771-5.606l2.784-.966a100.299 100.299 0 011.661 5.213l10.378-5.273 1.232 2.425-10.877 5.527c.502 1.928.875 3.488 1.122 4.679l13.622-6.921 1.232 2.425zm-28.12-2.628a67.8 67.8 0 01.683 8.94l12.393 24.393-2.567 1.304-10.056-19.792c-.2 2.315-.577 4.81-1.132 7.485l-2.869-.965c.663-2.7 1.042-5.869 1.138-9.507a68.347 68.347 0 00-.572-11.016l2.982-.842zm515.079-426.123c.544 3.014.862 5.993.952 8.938l12.139 23.893-2.603 1.323-9.729-19.15a68.372 68.372 0 01-1.027 7.251l-2.956-.696c.671-3.153 1.019-6.53 1.044-10.132a53.315 53.315 0 00-.909-10.62l3.089-.807zm36.537 17.868l-.461 3.42c-5.621-.584-10.488-1.745-14.602-3.484-1.108 3.883-3.029 8.374-5.763 13.472l-3.282-1.249c3.093-5.041 5.198-9.55 6.318-13.529-2.657-1.402-5.185-3.169-7.584-5.3-2.375-2.143-4.717-4.752-7.027-7.826l-1.355.689-1.377-2.711 18.294-9.294 1.359 2.674c1.038 3.691 1.662 7.127 1.873 10.31.2 3.159-.007 6.315-.618 9.467 3.695 1.563 8.437 2.683 14.225 3.361zm-29.69-15.873c2.115 2.634 4.187 4.857 6.214 6.668a35.673 35.673 0 006.487 4.556c.519-2.746.669-5.484.448-8.214-.232-2.753-.811-5.689-1.738-8.808l-11.411 5.798zm27.54-20.094c.533 3.109.832 6.112.899 9.01l12.302 24.214-2.603 1.323-9.911-19.507c-.155 1.873-.456 4.165-.904 6.875l-2.85-.93c.626-2.83.963-6.052 1.011-9.666a54.113 54.113 0 00-.873-10.549l2.929-.77zm20.738.725l4.548 8.951 5.634-2.863 1.323 2.604-23.323 11.849-1.322-2.603 5.563-2.827-4.548-8.951-3.994 2.03-1.268-2.497 3.994-2.029-3.388-6.669 2.729-1.252 3.333 6.562 6.847-3.479-3.388-6.668 2.658-1.216 3.334 6.562 4.422-2.247 1.268 2.496-4.422 2.247zm-2.603 1.323l-6.847 3.478 4.547 8.951 6.847-3.478-4.547-8.951zm-4.468 28.472c.872-1.64 1.67-3.571 2.395-5.794.713-2.246 1.225-4.271 1.535-6.074l2.831.715c-.382 1.78-.935 3.811-1.66 6.093a93.887 93.887 0 01-2.179 6.043l-2.922-.983zm11.17-15.457c1.398.337 3.268.928 5.611 1.771 2.367.832 4.268 1.571 5.703 2.217l-.607 2.956c-1.293-.719-3.069-1.477-5.328-2.273-2.271-.821-4.327-1.481-6.166-1.982l.787-2.689zm39.597-11.817c.689-.41 1.164-.771 1.424-1.083.273-.288.384-.599.334-.932-.038-.37-.22-.875-.546-1.517l-13.154-25.89 2.444-1.107 13.516 26.603c.495.975.745 1.79.749 2.446.004.656-.242 1.26-.74 1.812-.485.575-1.298 1.212-2.438 1.911l-1.639 1.013-1.981-2.045 2.031-1.211zm-36.476-16.867c1.038.16 2.322.42 3.851.78 1.54.324 2.759.632 3.655.924l-.212 3.204c-.98-.399-2.271-.82-3.872-1.263-1.613-.467-2.933-.798-3.96-.994l.538-2.651zm17.26 19.137l-10.526-20.719 11.197-5.689 10.473 20.612-2.39 1.214-9.24-18.187-6.455 3.279 9.295 18.294-2.354 1.196zm14.095-5.905l-10.274-20.22 2.408-1.088 10.219 20.113-2.353 1.195zM975.91 423.24c1.414-2.693 2.33-4.863 2.749-6.511.418-1.649.456-3.283.111-4.903-.356-1.643-1.193-3.761-2.509-6.352l-4.711-9.272 2.372-1.071 4.657 9.165c1.485 2.924 2.425 5.274 2.818 7.048.417 1.763.41 3.546-.019 5.349-.418 1.768-1.35 4.29-2.796 7.567l-2.672-1.02zm-15.114-19.062c1.003.149 2.37.426 4.102.832 1.732.407 3.088.78 4.068 1.119l-.445 3.098c-.957-.471-2.284-.934-3.98-1.388-1.685-.49-3.124-.85-4.318-1.081l.573-2.58zm10.039 22.762c-.035-1.777-.343-4.178-.923-7.204-.556-3.037-1.12-5.442-1.692-7.216l1.43-.188 1.197-.204c.548 1.725 1.118 4.083 1.71 7.073.591 2.989.965 5.402 1.119 7.237l-2.841.502zm11.636-15.513c3.368.801 6.224 1.772 8.569 2.914l-.679 2.903c-2.466-1.499-5.222-2.656-8.269-3.471l.379-2.346zm52.299-24.78c.58 2.191.91 4.013.99 5.468.13 1.788-.48 3.026-1.84 3.715-1.45.737-3.19.306-5.23-1.29-1.62-1.302-3.44-3.335-5.48-6.101-2.01-2.778-4.38-6.615-7.1-11.511l-11.49 5.835-1.32-2.604 11.41-5.798-3.71-6.863 2.61-1.144 3.64 6.721 7.91-4.022 1.33 2.603-7.81 3.968c2.66 4.717 4.87 8.323 6.61 10.816 1.75 2.493 3.32 4.284 4.71 5.372.67.497 1.18.833 1.54 1.01.37.141.68.15.91.03.69-.351.88-1.24.58-2.669a27.444 27.444 0 00-1.1-3.661l2.84.125zm-12.62-16.555c-.76-.425-1.78-.847-3.07-1.268-1.29-.422-2.37-.713-3.23-.874l.65-2.437c.72.114 1.73.376 3.05.785 1.32.373 2.38.718 3.17 1.035l-.57 2.759zm-20.63 13.531c-.96-.649-2.301-1.374-4.023-2.174-1.711-.836-3.122-1.435-4.234-1.798l1.146-2.601c.992.304 2.337.832 4.036 1.584 1.725.74 3.075 1.4 4.055 1.978l-.98 3.011zm9.47 11.925l2.4 1.38-.42 1.559c-.94 3.381-1.5 5.311-1.68 5.789-.23.657-.45 1.517-.66 2.58l-2.64-1.038c.17-.562.23-1.087.19-1.576-.05-.512-.22-1.042-.49-1.589l-6.36-12.517-4.46 2.265-1.359-2.675 6.989-3.551 7.25 14.265 1.24-4.892zm13.75-2.504l.84 1.373c-1.26 1.117-3.02 2.547-5.27 4.291-2.27 1.72-4.13 3.086-5.59 4.097l-1.59-2.423a82.642 82.642 0 004.27-3.069l-4.78-9.414-4.14 2.102-1.27-2.497 10.67-5.417 1.26 2.496-3.99 2.029 4.53 8.916c1.99-1.611 3.45-2.831 4.38-3.66l.68 1.176zm36.24-38.644l1.14 2.247 10.38-5.273 1.07 2.104-22.83 11.596-1.07-2.104 9.95-5.055-1.14-2.247-7.66 3.896-1.04-2.033 7.67-3.895-1.09-2.14-8.73 4.439-1.07-2.104 8.73-4.439-1.61-3.174 2.53-1.197 1.58 3.103 8.95-4.548 1.07 2.104-8.95 4.548 1.09 2.139 8.13-4.131 1.03 2.033-8.13 4.131zm-15.18 6.949c-.89-.746-2.12-1.584-3.7-2.516-1.58-.932-2.89-1.616-3.91-2.05l1.36-2.442c.95.411 2.23 1.065 3.82 1.961 1.62.884 2.86 1.628 3.74 2.23l-1.31 2.817zm9 16.919l1.58-4.214 2.2 1.935c-.35.838-.76 1.836-1.22 2.996a73.476 73.476 0 00-1.19 3.031c-.22.466-.47 1.207-.76 2.223l-2.55-1.129c.17-.502.24-.943.23-1.325-.01-.417-.1-.816-.3-1.197l-6.65-13.087-4.49 2.283-1.27-2.497 7.03-3.569 7.39 14.55zm7.84 3.151l-7.92-15.584 16.69-8.479 6.18 12.161c.42.832.62 1.522.6 2.071-.01.572-.26 1.105-.76 1.597-.46.504-1.26 1.105-2.4 1.804l-1.02.651-1.78-1.653 1.3-.795c.68-.434 1.14-.788 1.39-1.064.26-.253.37-.504.34-.754-.02-.262-.14-.631-.39-1.107l-.5-.998-11.77 5.979 2.5 4.921-2.46 1.25zm8.48-18.533l-1.1-2.176-11.77 5.979 1.1 2.176 11.77-5.979zm-10.7 8.083l1.11 2.175 11.77-5.979-1.11-2.175-11.77 5.979zm41.21-43.277l9.31 21.514c.61 1.427.88 2.588.83 3.483-.02.906-.4 1.744-1.15 2.512-.71.78-1.9 1.652-3.56 2.617l-2.35 1.374-2.4-2.149 3.07-1.826c1.08-.639 1.83-1.187 2.26-1.643.42-.479.6-1.005.55-1.578-.04-.607-.29-1.423-.75-2.445-.88-2.13-2.11-5.061-3.71-8.796a1364.54 1364.54 0 00-3.78-8.759l-4.1 2.084c1.37 4.332 2.22 8.161 2.56 11.486.36 3.289.2 6.54-.47 9.752-.65 3.201-1.88 6.786-3.69 10.757l-3.6-.817c1.93-3.793 3.28-7.183 4.03-10.169a27.46 27.46 0 00.77-9.093c-.27-3.063-1.04-6.576-2.31-10.539l-4.38 2.228c1.08 4.895 1.38 9.377.91 13.447-.49 4.046-1.81 8.288-3.95 12.726l-3.12-1.017c2.16-3.997 3.49-7.858 3.99-11.582.51-3.76.32-7.82-.58-12.179l-4.53 2.301c-.29 4.188-.91 7.913-1.86 11.175l-2.94-.84c.83-2.903 1.4-6.019 1.71-9.349.31-3.329.29-6.382-.07-9.158l3.03-.825c.2 1.692.29 3.516.27 5.472l20.01-10.164zm13.69-12.295c.36 1.727.71 3.704 1.04 5.932l8.2-4.167 1.34 2.639c1.13 3.642 1.78 7.096 1.94 10.363.19 3.255-.06 6.536-.74 9.844-.69 3.284-1.83 6.929-3.42 10.934l-3.22-1.053c1.59-3.802 2.75-7.233 3.47-10.29.71-3.082 1.02-6.095.93-9.04-.1-2.969-.62-6.114-1.56-9.435l-6.6 3.352c.18 1.883.26 3.933.25 6.152 1.05.064 2.23.212 3.55.442 1.3.206 2.37.426 3.2.659l-.13 3.525c-.79-.317-1.82-.62-3.07-.91a33.22 33.22 0 00-3.6-.639 44.542 44.542 0 01-.49 4.69l-3.06-.911c.45-3.223.59-6.7.4-10.431-.2-3.732-.69-7.295-1.49-10.688l3.06-.968zm25.73 26.632l-16.23-31.953 2.64-1.251 16.19 31.881-2.6 1.323zm-6.62-23.016c4.82.481 8.45 1.042 10.9 1.683l-.19 3.507c-2.29-.748-4.26-1.29-5.9-1.626a38.96 38.96 0 00-5.17-.736l.36-2.828zm44.38-18.915l-14.27 7.247c.3 1.704.52 3.193.66 4.468l12.3-6.251 1.25 2.461c-.16 2.744-.62 5.907-1.37 9.49 2.35-.027 4.43.025 6.23.157l.38 3.486c-2.45-.402-5.6-.578-9.47-.53-3.84.037-7.07.231-9.71.582l-.2-2.861c2.73-.4 6-.653 9.8-.761.65-3.022 1.02-5.648 1.11-7.878l-11.91 6.051-1.19-2.264c-.18-1.764-.4-3.343-.66-4.736l-5.81 2.953-1.23-2.425 6.52-3.316a225.96 225.96 0 00-1.08-4.698l-5.67 2.881-1.23-2.425 6.16-3.134a73.027 73.027 0 00-1.77-5.606l2.79-.966c.69 2.011 1.24 3.749 1.66 5.213l10.38-5.273 1.23 2.425-10.88 5.527c.5 1.928.88 3.488 1.12 4.679l13.63-6.921 1.23 2.425zm-28.12-2.628c.42 2.955.65 5.935.68 8.94l12.39 24.393-2.56 1.304-10.06-19.792c-.2 2.315-.58 4.81-1.13 7.485l-2.87-.965c.66-2.7 1.04-5.869 1.14-9.507.11-3.674-.09-7.346-.57-11.016l2.98-.842z" fill="#F20D0D" fill-opacity=".48"/></svg>